<svg xmlns="http://www.w3.org/2000/svg" viewBox="0 0 260 248">
<path d="M 84,86 L 83,87 L 78,87 L 77,88 L 75,88 L 74,89 L 71,89 L 70,90 L 69,90 L 68,91 L 67,91 L 65,93 L 64,93 L 63,94 L 62,94 L 60,96 L 59,96 L 59,100 L 58,101 L 57,100 L 57,98 L 55,100 L 54,100 L 44,110 L 44,111 L 39,116 L 39,117 L 36,120 L 36,121 L 34,123 L 34,124 L 32,126 L 32,127 L 31,128 L 31,129 L 30,130 L 30,131 L 29,132 L 29,133 L 28,134 L 28,135 L 27,136 L 27,138 L 26,139 L 26,141 L 25,142 L 25,144 L 24,145 L 24,148 L 23,149 L 23,152 L 22,153 L 22,161 L 21,162 L 21,170 L 22,171 L 22,179 L 23,180 L 23,183 L 24,184 L 24,186 L 25,187 L 25,189 L 26,190 L 26,192 L 27,193 L 27,194 L 28,195 L 28,196 L 29,197 L 29,198 L 31,200 L 31,201 L 33,203 L 33,204 L 44,215 L 45,215 L 48,218 L 49,218 L 50,219 L 51,219 L 52,220 L 53,220 L 54,221 L 55,221 L 56,222 L 58,222 L 59,223 L 61,223 L 62,224 L 64,224 L 65,225 L 68,225 L 69,226 L 73,226 L 74,227 L 81,227 L 82,228 L 109,228 L 110,229 L 132,229 L 133,230 L 139,230 L 140,231 L 147,231 L 148,232 L 171,232 L 172,231 L 177,231 L 178,230 L 181,230 L 182,229 L 184,229 L 185,228 L 186,228 L 187,227 L 189,227 L 191,225 L 192,225 L 194,223 L 195,223 L 203,215 L 203,214 L 204,213 L 204,212 L 206,210 L 206,209 L 207,208 L 207,206 L 208,205 L 208,204 L 209,203 L 209,201 L 210,200 L 210,197 L 211,196 L 211,191 L 212,190 L 212,183 L 213,182 L 213,174 L 212,173 L 212,166 L 211,165 L 211,163 L 210,162 L 210,160 L 209,159 L 209,158 L 208,157 L 208,156 L 207,155 L 207,154 L 205,152 L 205,151 L 202,148 L 202,147 L 196,141 L 195,141 L 191,137 L 190,137 L 187,134 L 186,134 L 184,132 L 183,132 L 182,131 L 181,131 L 179,129 L 178,129 L 176,127 L 175,127 L 173,125 L 172,125 L 171,124 L 170,124 L 168,122 L 167,122 L 166,121 L 165,121 L 163,119 L 162,119 L 161,118 L 160,118 L 158,116 L 157,116 L 156,115 L 155,115 L 154,114 L 153,114 L 152,113 L 151,113 L 149,111 L 148,111 L 147,110 L 146,110 L 144,108 L 143,108 L 142,107 L 141,107 L 140,106 L 139,106 L 138,105 L 137,105 L 136,104 L 135,104 L 133,102 L 132,102 L 131,101 L 130,101 L 129,100 L 128,100 L 127,99 L 126,99 L 125,98 L 124,98 L 123,97 L 122,97 L 121,96 L 120,96 L 119,95 L 118,95 L 117,94 L 116,94 L 115,93 L 113,93 L 112,92 L 111,92 L 110,91 L 108,91 L 107,90 L 105,90 L 104,89 L 102,89 L 101,88 L 98,88 L 97,87 L 91,87 L 90,86 Z" fill="#e6a18c"/>
<path d="M 153,16 L 152,17 L 153,18 L 153,19 L 155,21 L 155,22 L 156,23 L 156,24 L 157,25 L 157,28 L 158,29 L 158,31 L 158,29 L 159,28 L 160,29 L 160,32 L 161,33 L 161,36 L 162,37 L 162,39 L 163,40 L 163,42 L 164,43 L 163,44 L 162,44 L 161,45 L 156,40 L 156,39 L 155,38 L 155,36 L 154,35 L 154,32 L 153,31 L 153,28 L 154,27 L 155,28 L 155,30 L 156,31 L 156,30 L 155,29 L 155,28 L 154,27 L 154,24 L 153,23 L 152,23 L 152,27 L 153,28 L 153,31 L 154,32 L 154,35 L 155,36 L 155,38 L 156,39 L 156,41 L 158,43 L 157,44 L 157,46 L 162,51 L 161,52 L 160,52 L 159,51 L 160,52 L 161,52 L 162,53 L 161,54 L 160,54 L 161,55 L 162,55 L 163,56 L 163,57 L 162,58 L 161,58 L 156,53 L 156,52 L 155,51 L 155,50 L 154,49 L 154,41 L 154,49 L 155,50 L 155,52 L 156,53 L 156,54 L 157,55 L 158,55 L 159,56 L 159,57 L 160,57 L 161,58 L 160,59 L 158,59 L 156,57 L 155,57 L 156,58 L 157,58 L 158,59 L 160,59 L 162,61 L 161,62 L 161,65 L 162,66 L 162,67 L 162,66 L 163,65 L 162,66 L 161,65 L 161,62 L 163,60 L 165,62 L 166,62 L 168,64 L 169,64 L 171,66 L 173,66 L 174,67 L 175,66 L 175,65 L 174,64 L 172,66 L 170,64 L 169,64 L 168,63 L 167,63 L 164,60 L 161,60 L 160,59 L 161,58 L 163,58 L 163,56 L 164,55 L 164,54 L 163,54 L 162,53 L 163,52 L 162,51 L 163,50 L 164,50 L 165,49 L 168,49 L 169,50 L 168,49 L 165,49 L 164,48 L 163,48 L 162,47 L 163,48 L 164,48 L 165,49 L 164,50 L 163,50 L 162,51 L 161,50 L 161,49 L 157,45 L 157,44 L 158,43 L 159,44 L 160,44 L 161,45 L 162,45 L 164,43 L 166,43 L 167,44 L 166,43 L 165,43 L 163,41 L 163,40 L 162,39 L 162,37 L 161,36 L 161,33 L 160,32 L 160,29 L 159,28 L 159,25 L 158,24 L 158,21 L 157,20 L 157,19 L 154,16 Z" fill="none" stroke="black" stroke-width="1"/>
<path d="M 138,0 L 137,1 L 135,1 L 133,3 L 129,3 L 128,4 L 126,4 L 125,5 L 124,5 L 122,7 L 121,7 L 120,8 L 120,9 L 118,11 L 118,12 L 117,13 L 117,14 L 115,16 L 115,17 L 113,19 L 113,20 L 111,22 L 111,25 L 108,28 L 108,29 L 107,30 L 107,33 L 106,34 L 106,39 L 105,40 L 104,40 L 103,39 L 99,39 L 98,38 L 92,38 L 91,39 L 89,39 L 88,40 L 86,40 L 85,41 L 84,41 L 81,44 L 80,44 L 77,47 L 77,48 L 68,57 L 67,57 L 65,59 L 63,59 L 62,60 L 61,60 L 60,61 L 59,61 L 59,63 L 58,64 L 59,65 L 59,66 L 60,67 L 60,68 L 62,70 L 62,71 L 63,72 L 63,73 L 65,75 L 65,76 L 63,78 L 63,79 L 62,80 L 62,81 L 61,82 L 61,83 L 60,84 L 60,85 L 59,86 L 59,89 L 58,90 L 58,94 L 57,95 L 57,101 L 61,105 L 62,105 L 63,106 L 71,106 L 78,113 L 79,113 L 72,106 L 72,98 L 73,97 L 74,98 L 74,105 L 74,96 L 73,97 L 72,96 L 72,103 L 71,104 L 64,104 L 59,99 L 59,95 L 60,94 L 60,90 L 61,89 L 61,88 L 63,86 L 65,86 L 66,87 L 67,87 L 68,88 L 70,88 L 69,88 L 68,87 L 69,86 L 70,86 L 71,85 L 69,83 L 69,82 L 68,81 L 68,80 L 66,78 L 65,79 L 64,78 L 64,77 L 65,76 L 65,75 L 64,74 L 64,73 L 62,71 L 62,70 L 60,68 L 60,67 L 59,66 L 59,65 L 58,64 L 59,63 L 59,62 L 61,60 L 62,60 L 63,59 L 65,59 L 66,58 L 67,58 L 83,42 L 84,42 L 86,40 L 88,40 L 89,41 L 88,42 L 87,42 L 85,44 L 84,44 L 68,60 L 67,60 L 65,62 L 64,61 L 64,62 L 65,63 L 65,64 L 66,65 L 66,66 L 68,68 L 68,69 L 69,70 L 69,71 L 70,72 L 70,73 L 72,75 L 72,76 L 73,77 L 73,78 L 75,80 L 75,81 L 77,83 L 77,84 L 79,86 L 78,87 L 75,87 L 73,85 L 73,84 L 72,83 L 72,82 L 70,80 L 70,79 L 69,78 L 69,77 L 67,75 L 67,74 L 66,73 L 66,72 L 64,70 L 64,69 L 63,68 L 63,67 L 61,65 L 61,63 L 62,62 L 61,63 L 61,65 L 62,66 L 62,67 L 64,69 L 64,70 L 66,72 L 66,73 L 67,74 L 67,76 L 70,79 L 70,80 L 71,81 L 71,82 L 73,84 L 73,86 L 72,87 L 72,89 L 80,89 L 81,90 L 83,90 L 85,92 L 86,92 L 88,94 L 89,94 L 90,95 L 91,95 L 90,95 L 89,94 L 88,94 L 86,92 L 85,92 L 83,90 L 84,89 L 85,89 L 86,90 L 87,90 L 89,92 L 90,92 L 91,93 L 92,93 L 93,94 L 95,94 L 96,95 L 95,96 L 93,96 L 95,96 L 96,95 L 98,95 L 100,97 L 100,98 L 104,102 L 104,103 L 103,104 L 99,100 L 93,100 L 92,99 L 93,98 L 97,98 L 92,98 L 91,97 L 90,97 L 90,99 L 89,100 L 90,100 L 90,98 L 91,97 L 92,98 L 92,101 L 91,102 L 88,102 L 88,106 L 89,107 L 89,106 L 88,105 L 88,103 L 89,102 L 91,102 L 95,106 L 95,107 L 96,108 L 96,110 L 97,111 L 97,116 L 96,117 L 95,116 L 95,115 L 95,116 L 96,117 L 94,119 L 92,119 L 91,118 L 92,117 L 93,117 L 92,117 L 91,116 L 92,115 L 93,115 L 92,115 L 91,114 L 92,113 L 92,111 L 90,111 L 89,110 L 91,108 L 91,106 L 91,108 L 89,110 L 87,110 L 86,109 L 86,107 L 85,106 L 85,104 L 84,103 L 85,104 L 85,107 L 84,108 L 83,107 L 83,105 L 83,107 L 84,108 L 84,109 L 85,110 L 85,111 L 85,110 L 86,109 L 87,110 L 89,110 L 90,111 L 89,112 L 87,112 L 86,113 L 82,113 L 82,114 L 83,115 L 87,115 L 88,116 L 87,117 L 80,117 L 79,116 L 80,115 L 79,115 L 78,116 L 77,116 L 76,117 L 74,117 L 73,118 L 72,118 L 71,119 L 70,119 L 69,120 L 69,121 L 68,122 L 68,123 L 67,124 L 67,133 L 68,134 L 68,136 L 69,137 L 69,138 L 70,139 L 70,140 L 72,142 L 73,142 L 74,143 L 74,145 L 73,146 L 73,151 L 72,152 L 72,160 L 71,161 L 30,161 L 30,163 L 78,163 L 79,164 L 90,164 L 92,166 L 92,168 L 94,170 L 94,171 L 97,174 L 98,174 L 99,175 L 100,175 L 101,176 L 103,176 L 101,176 L 100,175 L 99,175 L 93,169 L 93,168 L 92,167 L 92,166 L 93,165 L 95,167 L 95,168 L 100,173 L 101,173 L 102,174 L 104,174 L 105,175 L 114,175 L 115,176 L 120,176 L 121,177 L 120,178 L 114,178 L 113,177 L 105,177 L 113,177 L 114,178 L 120,178 L 121,177 L 127,177 L 128,176 L 129,176 L 132,173 L 135,173 L 136,172 L 137,172 L 142,167 L 173,167 L 174,168 L 201,168 L 201,166 L 174,166 L 173,165 L 145,165 L 173,165 L 174,166 L 173,167 L 141,167 L 135,173 L 133,173 L 132,172 L 133,171 L 132,170 L 133,169 L 135,169 L 136,168 L 135,168 L 134,169 L 133,169 L 132,170 L 131,170 L 126,175 L 121,175 L 120,176 L 115,176 L 114,175 L 105,175 L 104,174 L 102,174 L 101,173 L 100,173 L 95,168 L 95,167 L 94,166 L 94,165 L 92,163 L 92,161 L 91,160 L 91,158 L 90,157 L 90,156 L 91,155 L 93,155 L 94,156 L 99,156 L 100,157 L 113,157 L 114,158 L 126,158 L 127,157 L 134,157 L 135,158 L 140,158 L 140,157 L 139,156 L 138,156 L 136,154 L 137,153 L 137,152 L 139,150 L 138,149 L 138,144 L 137,143 L 137,142 L 138,141 L 139,142 L 138,141 L 139,140 L 139,138 L 139,140 L 137,142 L 136,141 L 135,141 L 134,140 L 134,139 L 135,138 L 136,138 L 137,137 L 136,138 L 135,138 L 133,140 L 130,140 L 129,139 L 125,139 L 124,140 L 121,140 L 120,139 L 121,138 L 122,138 L 123,137 L 126,137 L 127,136 L 130,136 L 131,135 L 133,135 L 134,134 L 135,134 L 134,134 L 133,133 L 134,132 L 135,132 L 136,131 L 138,131 L 138,129 L 139,128 L 140,129 L 140,133 L 142,135 L 141,136 L 140,136 L 138,134 L 138,133 L 138,135 L 139,136 L 141,136 L 142,135 L 143,135 L 143,132 L 144,131 L 144,130 L 147,127 L 149,127 L 150,126 L 149,126 L 148,127 L 147,127 L 145,125 L 146,124 L 154,124 L 155,123 L 156,123 L 155,123 L 154,122 L 155,121 L 156,121 L 157,120 L 158,120 L 159,119 L 160,119 L 161,118 L 162,118 L 164,116 L 165,116 L 167,114 L 168,114 L 169,113 L 170,113 L 171,114 L 169,116 L 168,116 L 166,118 L 165,118 L 163,120 L 162,120 L 161,121 L 160,121 L 160,131 L 159,132 L 158,131 L 158,122 L 158,131 L 157,132 L 157,133 L 155,135 L 155,136 L 153,138 L 153,139 L 150,142 L 150,143 L 148,145 L 148,146 L 144,150 L 144,157 L 145,158 L 145,161 L 143,163 L 143,164 L 142,165 L 143,164 L 143,163 L 145,161 L 146,162 L 146,163 L 147,162 L 147,157 L 146,156 L 146,152 L 148,150 L 148,149 L 152,145 L 152,144 L 154,142 L 154,141 L 156,139 L 156,138 L 158,136 L 158,135 L 159,134 L 159,132 L 160,131 L 160,122 L 162,120 L 163,120 L 164,119 L 166,121 L 167,121 L 169,123 L 170,123 L 171,124 L 172,124 L 174,126 L 175,126 L 177,128 L 178,128 L 180,130 L 181,130 L 182,131 L 183,131 L 185,133 L 186,133 L 189,136 L 190,136 L 194,140 L 195,140 L 204,149 L 204,150 L 206,152 L 206,153 L 208,155 L 208,156 L 210,158 L 210,160 L 211,161 L 211,163 L 212,164 L 212,167 L 213,168 L 213,188 L 212,189 L 212,194 L 211,195 L 211,199 L 210,200 L 210,202 L 209,203 L 209,205 L 208,206 L 208,207 L 206,209 L 206,210 L 205,211 L 205,212 L 204,213 L 204,214 L 200,218 L 200,219 L 198,221 L 197,221 L 194,224 L 193,224 L 191,226 L 190,226 L 188,228 L 186,228 L 185,229 L 184,229 L 183,230 L 181,230 L 180,231 L 176,231 L 175,232 L 169,232 L 168,233 L 152,233 L 151,232 L 143,232 L 142,231 L 135,231 L 134,230 L 119,230 L 118,229 L 86,229 L 85,228 L 76,228 L 75,227 L 71,227 L 70,226 L 66,226 L 65,225 L 63,225 L 62,224 L 60,224 L 59,223 L 57,223 L 56,222 L 55,222 L 54,221 L 53,221 L 52,220 L 51,220 L 50,219 L 49,219 L 46,216 L 45,216 L 41,212 L 40,212 L 36,208 L 36,207 L 32,203 L 32,202 L 30,200 L 30,199 L 29,198 L 29,197 L 27,195 L 27,194 L 26,193 L 26,192 L 25,191 L 25,189 L 24,188 L 24,186 L 23,185 L 23,182 L 22,181 L 22,177 L 21,176 L 21,156 L 22,155 L 22,150 L 23,149 L 23,146 L 24,145 L 24,143 L 25,142 L 25,140 L 26,139 L 26,137 L 27,136 L 27,135 L 28,134 L 28,133 L 29,132 L 29,131 L 30,130 L 30,129 L 31,128 L 31,127 L 33,125 L 33,124 L 35,122 L 35,121 L 38,118 L 38,117 L 42,113 L 42,112 L 55,99 L 55,98 L 42,111 L 42,112 L 38,116 L 38,117 L 35,120 L 35,121 L 33,123 L 33,124 L 31,126 L 31,127 L 30,128 L 30,129 L 29,130 L 29,131 L 28,132 L 28,134 L 27,135 L 27,136 L 26,137 L 26,139 L 25,140 L 25,142 L 24,143 L 24,145 L 23,146 L 23,149 L 22,150 L 22,155 L 21,156 L 21,176 L 22,177 L 22,181 L 23,182 L 23,185 L 24,186 L 24,188 L 25,189 L 25,191 L 26,192 L 26,193 L 27,194 L 27,196 L 29,198 L 29,199 L 30,200 L 30,201 L 32,203 L 32,204 L 36,208 L 36,209 L 39,212 L 40,212 L 44,216 L 45,216 L 48,219 L 49,219 L 50,220 L 51,220 L 52,221 L 54,221 L 55,222 L 56,222 L 57,223 L 59,223 L 60,224 L 62,224 L 63,225 L 65,225 L 66,226 L 70,226 L 71,227 L 75,227 L 76,228 L 85,228 L 86,229 L 118,229 L 119,230 L 134,230 L 135,231 L 142,231 L 143,232 L 151,232 L 152,233 L 168,233 L 169,232 L 175,232 L 176,231 L 180,231 L 181,230 L 183,230 L 184,229 L 185,229 L 186,228 L 188,228 L 189,227 L 190,227 L 191,226 L 192,226 L 194,224 L 195,224 L 198,221 L 199,221 L 200,220 L 200,219 L 204,215 L 204,214 L 205,213 L 205,212 L 206,211 L 206,210 L 207,209 L 207,208 L 208,207 L 208,206 L 209,205 L 209,203 L 210,202 L 210,200 L 211,199 L 211,195 L 212,194 L 212,189 L 213,188 L 213,168 L 212,167 L 212,164 L 211,163 L 211,161 L 210,160 L 210,158 L 209,157 L 209,156 L 208,155 L 208,154 L 206,152 L 206,151 L 204,149 L 204,148 L 196,140 L 195,140 L 191,136 L 190,136 L 188,134 L 187,134 L 185,132 L 184,132 L 182,130 L 181,130 L 179,128 L 178,128 L 176,126 L 175,126 L 173,124 L 172,124 L 171,123 L 170,123 L 168,121 L 167,121 L 166,120 L 165,120 L 164,119 L 165,118 L 166,118 L 167,117 L 168,117 L 171,114 L 173,114 L 175,112 L 176,112 L 179,109 L 179,103 L 178,102 L 178,101 L 177,100 L 177,95 L 176,94 L 176,91 L 175,90 L 175,87 L 174,86 L 174,84 L 173,83 L 173,82 L 174,81 L 173,80 L 173,78 L 173,83 L 174,84 L 174,86 L 175,87 L 175,90 L 174,91 L 173,90 L 173,88 L 172,87 L 172,85 L 171,84 L 171,82 L 170,81 L 170,80 L 170,81 L 171,82 L 171,84 L 172,85 L 172,87 L 173,88 L 173,90 L 174,91 L 174,95 L 175,96 L 175,99 L 173,101 L 172,101 L 170,103 L 169,103 L 166,106 L 165,106 L 163,108 L 162,108 L 160,110 L 159,110 L 158,111 L 157,111 L 156,112 L 155,112 L 153,114 L 151,114 L 150,115 L 149,115 L 148,116 L 146,116 L 145,117 L 144,116 L 144,114 L 146,112 L 147,113 L 148,113 L 150,111 L 151,112 L 152,112 L 151,112 L 150,111 L 151,110 L 151,109 L 153,107 L 153,105 L 152,105 L 151,104 L 154,101 L 156,101 L 157,100 L 158,100 L 159,99 L 159,97 L 160,96 L 160,94 L 159,93 L 159,92 L 157,90 L 157,86 L 158,85 L 157,86 L 156,86 L 155,87 L 155,89 L 154,90 L 153,89 L 152,89 L 150,87 L 150,85 L 150,87 L 151,88 L 151,89 L 152,89 L 153,90 L 151,92 L 150,92 L 148,90 L 149,89 L 148,90 L 147,89 L 146,89 L 145,88 L 145,82 L 151,76 L 151,75 L 152,74 L 151,73 L 151,70 L 149,68 L 150,67 L 151,67 L 154,70 L 154,71 L 155,72 L 155,74 L 153,76 L 153,77 L 147,83 L 147,84 L 148,85 L 147,86 L 147,87 L 147,86 L 148,85 L 147,84 L 147,83 L 150,80 L 151,80 L 153,78 L 153,77 L 154,76 L 154,75 L 155,74 L 155,72 L 154,71 L 154,70 L 153,69 L 153,68 L 151,66 L 151,65 L 151,66 L 149,68 L 148,68 L 147,67 L 146,67 L 145,66 L 143,66 L 143,68 L 142,69 L 142,70 L 139,73 L 138,73 L 137,72 L 140,69 L 140,68 L 141,67 L 141,65 L 139,63 L 139,61 L 140,60 L 141,61 L 141,62 L 143,64 L 144,64 L 145,63 L 147,65 L 148,64 L 149,65 L 148,64 L 148,63 L 147,62 L 147,54 L 147,62 L 148,63 L 148,64 L 147,65 L 145,63 L 145,61 L 144,60 L 144,59 L 145,58 L 145,54 L 145,58 L 144,59 L 144,60 L 143,61 L 143,62 L 142,63 L 141,62 L 141,57 L 140,56 L 141,55 L 142,55 L 143,54 L 143,53 L 144,52 L 144,50 L 140,50 L 138,48 L 139,47 L 140,47 L 141,48 L 143,48 L 141,48 L 140,47 L 138,47 L 138,49 L 139,49 L 140,50 L 143,50 L 144,51 L 144,52 L 141,55 L 140,55 L 138,57 L 137,57 L 134,60 L 133,60 L 132,61 L 131,61 L 129,63 L 124,63 L 121,60 L 121,59 L 120,58 L 120,56 L 118,54 L 118,52 L 117,51 L 117,47 L 115,45 L 115,43 L 114,42 L 115,41 L 115,40 L 116,39 L 116,37 L 118,35 L 118,34 L 119,33 L 119,31 L 120,30 L 120,29 L 121,28 L 122,28 L 124,26 L 138,26 L 123,26 L 121,28 L 120,27 L 120,26 L 122,24 L 137,24 L 138,23 L 139,23 L 140,24 L 140,26 L 140,24 L 139,23 L 138,23 L 137,22 L 138,23 L 137,24 L 122,24 L 120,26 L 120,27 L 121,28 L 120,29 L 120,30 L 119,31 L 119,33 L 118,34 L 116,32 L 116,31 L 117,30 L 117,28 L 118,27 L 118,25 L 120,23 L 120,22 L 122,20 L 123,20 L 124,19 L 125,19 L 126,18 L 127,18 L 126,18 L 125,17 L 123,17 L 122,18 L 121,18 L 120,19 L 119,18 L 118,19 L 117,18 L 117,17 L 121,13 L 122,13 L 123,14 L 127,14 L 123,14 L 122,13 L 120,13 L 119,14 L 118,13 L 118,12 L 120,10 L 121,11 L 122,10 L 123,11 L 125,11 L 126,12 L 127,12 L 126,11 L 123,11 L 122,10 L 123,9 L 127,9 L 128,8 L 131,8 L 132,9 L 139,9 L 140,10 L 139,11 L 133,11 L 132,12 L 131,12 L 132,12 L 133,11 L 139,11 L 140,12 L 139,11 L 140,10 L 141,10 L 142,11 L 142,12 L 144,12 L 145,11 L 144,11 L 143,12 L 141,10 L 140,10 L 139,9 L 132,9 L 131,8 L 128,8 L 127,9 L 123,9 L 121,11 L 120,10 L 120,9 L 122,7 L 123,7 L 125,5 L 126,5 L 127,4 L 128,4 L 129,5 L 133,5 L 129,5 L 128,4 L 129,3 L 133,3 L 135,1 L 137,1 L 138,0 L 142,0 L 143,1 L 144,1 L 145,2 L 146,2 L 147,3 L 148,3 L 150,5 L 151,5 L 152,6 L 156,6 L 157,7 L 158,7 L 159,8 L 160,8 L 162,10 L 162,11 L 164,13 L 164,14 L 163,15 L 160,12 L 160,11 L 159,10 L 158,10 L 157,9 L 156,9 L 155,8 L 151,8 L 150,7 L 149,7 L 147,5 L 148,6 L 148,7 L 150,7 L 151,8 L 155,8 L 156,9 L 157,9 L 163,15 L 163,18 L 164,19 L 164,21 L 165,22 L 165,23 L 166,24 L 166,28 L 166,24 L 165,23 L 165,22 L 164,21 L 164,19 L 163,18 L 163,15 L 164,14 L 165,15 L 165,16 L 166,17 L 166,18 L 167,19 L 167,20 L 168,21 L 168,35 L 169,36 L 169,37 L 171,39 L 171,41 L 172,42 L 172,44 L 171,45 L 170,44 L 170,43 L 167,40 L 168,39 L 167,40 L 166,39 L 166,38 L 165,37 L 165,34 L 164,33 L 164,31 L 165,30 L 164,31 L 162,29 L 162,28 L 163,27 L 164,27 L 164,26 L 163,25 L 163,24 L 162,23 L 162,22 L 161,21 L 161,20 L 160,19 L 161,18 L 160,17 L 160,20 L 162,22 L 162,24 L 163,25 L 163,26 L 162,27 L 162,29 L 163,30 L 163,31 L 164,32 L 164,33 L 165,34 L 165,37 L 166,38 L 166,40 L 169,43 L 169,45 L 170,44 L 171,45 L 171,46 L 170,47 L 168,47 L 167,46 L 166,46 L 165,45 L 166,46 L 167,46 L 168,47 L 170,47 L 172,49 L 172,50 L 173,51 L 173,52 L 174,53 L 174,55 L 173,56 L 173,61 L 174,61 L 177,64 L 177,67 L 175,69 L 174,69 L 173,70 L 173,75 L 170,78 L 169,78 L 168,77 L 168,76 L 167,75 L 166,75 L 165,74 L 166,73 L 167,73 L 166,73 L 165,72 L 166,71 L 167,71 L 166,71 L 165,70 L 165,69 L 166,68 L 167,69 L 166,68 L 164,70 L 165,70 L 166,71 L 165,72 L 163,72 L 162,71 L 162,70 L 160,68 L 159,69 L 156,69 L 158,69 L 159,70 L 159,71 L 160,72 L 160,74 L 162,76 L 162,79 L 161,80 L 159,78 L 159,76 L 157,76 L 157,78 L 158,79 L 155,82 L 155,83 L 154,84 L 152,82 L 155,79 L 152,82 L 152,83 L 153,83 L 154,84 L 153,85 L 153,86 L 153,85 L 157,81 L 157,80 L 158,79 L 159,80 L 159,82 L 158,83 L 159,82 L 160,82 L 161,81 L 161,80 L 162,79 L 162,75 L 160,73 L 160,72 L 159,71 L 159,69 L 160,68 L 161,69 L 161,70 L 163,72 L 165,72 L 166,73 L 165,74 L 166,75 L 166,80 L 165,81 L 164,81 L 164,82 L 163,83 L 165,81 L 166,81 L 167,82 L 164,85 L 163,85 L 161,87 L 160,86 L 160,85 L 161,84 L 160,85 L 160,86 L 159,87 L 159,88 L 161,88 L 165,84 L 166,84 L 168,82 L 168,81 L 167,82 L 166,81 L 166,76 L 167,75 L 168,76 L 168,78 L 170,78 L 173,75 L 173,71 L 177,67 L 177,64 L 176,63 L 176,62 L 175,62 L 173,60 L 173,56 L 174,55 L 174,53 L 173,52 L 173,50 L 170,47 L 171,46 L 171,45 L 172,44 L 172,41 L 171,40 L 171,38 L 169,36 L 169,35 L 168,34 L 168,21 L 167,20 L 167,19 L 166,18 L 166,16 L 165,15 L 165,14 L 163,12 L 163,11 L 160,8 L 159,8 L 158,7 L 157,7 L 156,6 L 152,6 L 151,5 L 150,5 L 147,2 L 146,2 L 145,1 L 143,1 L 142,0 Z" fill="none" stroke="black" stroke-width="1"/>
</svg>